<?xml version="1.0" standalone="no"?>
<!DOCTYPE svg PUBLIC "-//W3C//DTD SVG 20010904//EN"
 "http://www.w3.org/TR/2001/REC-SVG-20010904/DTD/svg10.dtd">
<svg version="1.0" xmlns="http://www.w3.org/2000/svg"
 width="177.000000pt" height="170.000000pt" viewBox="0 0 177.000000 170.000000"
 preserveAspectRatio="xMidYMid meet">

<g transform="translate(0.000000,170.000000) scale(0.100000,-0.100000)"
fill="#000000" stroke="none">
<path d="M650 1685 c-173 -28 -295 -93 -320 -171 -8 -24 -7 -68 4 -171 9 -76
18 -224 22 -329 l7 -190 176 0 c195 0 274 -13 588 -94 83 -22 160 -40 171 -40
18 0 19 12 25 288 3 158 11 338 17 400 14 130 8 154 -48 203 -81 71 -222 109
-422 115 -85 2 -166 -2 -220 -11z"/>
<path d="M1578 713 c18 -2 45 -2 60 0 15 2 0 4 -33 4 -33 0 -45 -2 -27 -4z"/>
<path d="M734 585 c-22 -34 -13 -40 18 -15 22 17 27 17 32 5 5 -15 36 -21 36
-7 -1 17 -29 42 -48 42 -12 0 -29 -11 -38 -25z"/>
<path d="M1578 593 c7 -3 16 -2 19 1 4 3 -2 6 -13 5 -11 0 -14 -3 -6 -6z"/>
<path d="M1648 593 c6 -2 18 -2 25 0 6 3 1 5 -13 5 -14 0 -19 -2 -12 -5z"/>
<path d="M215 536 c-102 -46 -131 -174 -57 -254 58 -62 154 -66 218 -10 45 40
30 63 -16 24 -60 -50 -130 -47 -178 9 -41 46 -48 86 -25 132 40 81 127 103
196 51 19 -16 40 -28 46 -28 33 0 -16 51 -71 75 -45 18 -73 19 -113 1z"/>
<path d="M440 390 c0 -127 2 -150 15 -150 12 0 15 13 15 60 l0 60 70 0 70 0 0
-60 c0 -47 3 -60 15 -60 13 0 15 23 15 150 0 127 -2 150 -15 150 -12 0 -15
-15 -15 -75 l0 -75 -70 0 -70 0 0 75 c0 60 -3 75 -15 75 -13 0 -15 -23 -15
-150z"/>
<path d="M757 533 c-3 -5 -21 -60 -41 -123 -20 -63 -41 -128 -46 -143 -8 -24
-7 -28 7 -25 10 2 24 26 36 61 l19 58 41 -3 c40 -3 41 -4 60 -60 12 -37 24
-58 34 -58 8 0 13 6 11 13 -3 6 -24 74 -48 150 -39 123 -58 156 -73 130z m42
-134 c1 -12 -6 -14 -28 -11 -28 4 -29 5 -19 40 6 21 13 41 16 46 6 10 30 -47
31 -75z"/>
<path d="M910 390 c0 -127 2 -150 15 -150 12 0 15 13 15 60 l0 60 53 0 c43 0
58 5 75 23 24 25 30 84 12 117 -13 24 -62 40 -121 40 l-49 0 0 -150z m128 104
c25 -17 29 -60 10 -87 -8 -9 -34 -20 -60 -23 l-48 -7 0 67 0 66 38 0 c21 0 48
-7 60 -16z"/>
<path d="M1120 390 l0 -150 95 0 c78 0 95 3 95 15 0 12 -16 15 -80 15 l-80 0
0 45 0 45 65 0 c51 0 65 3 65 15 0 12 -14 15 -65 15 l-65 0 0 60 0 60 80 0
c64 0 80 3 80 15 0 12 -17 15 -95 15 l-95 0 0 -150z"/>
<path d="M1376 397 c-25 -80 -46 -147 -46 -151 0 -3 6 -6 13 -6 7 0 21 26 32
58 20 56 21 57 62 60 l42 3 17 -60 c10 -37 22 -61 30 -61 20 0 18 11 -30 160
-29 89 -49 136 -59 138 -12 2 -26 -31 -61 -141z m77 39 l15 -44 -29 -4 c-16
-3 -29 0 -29 5 0 12 22 87 26 87 1 0 9 -20 17 -44z"/>
<path d="M1544 525 c-4 -8 -4 -65 -2 -126 3 -111 3 -111 36 -140 18 -16 44
-29 58 -29 33 0 81 25 94 49 5 11 10 74 10 140 0 101 -2 121 -15 121 -12 0
-15 -20 -15 -120 0 -107 -2 -122 -20 -140 -25 -25 -61 -26 -91 -1 -22 18 -24
27 -27 140 -3 110 -13 146 -28 106z"/>
<path d="M1107 194 c-3 -4 -2 -16 4 -26 9 -16 5 -32 -18 -76 -15 -30 -33 -57
-39 -59 -13 -4 -24 50 -24 115 0 32 -4 42 -16 42 -14 0 -16 -7 -11 -44 5 -35
2 -50 -16 -77 -12 -18 -26 -33 -32 -33 -5 -1 -14 33 -18 74 -9 80 -11 85 -25
76 -9 -6 9 -170 21 -182 9 -9 36 14 58 49 l17 29 7 -34 c11 -49 15 -52 42 -26
48 45 89 132 76 164 -5 15 -16 18 -26 8z"/>
<path d="M1526 179 c-54 -43 -75 -122 -41 -159 25 -27 58 -25 92 6 25 22 25
24 3 10 -33 -22 -67 -20 -80 3 -14 28 -14 28 30 51 22 11 46 33 55 49 13 27
13 31 -1 45 -20 21 -26 20 -58 -5z m54 -5 c0 -23 -52 -83 -72 -84 -15 0 -8 38
13 64 18 22 59 37 59 20z"/>
<path d="M1186 173 c-3 -10 -10 -47 -16 -82 -10 -54 -9 -66 4 -79 14 -14 17
-14 36 3 11 10 20 23 20 28 0 6 -9 2 -20 -8 -31 -28 -35 1 -12 84 15 55 16 71
6 71 -7 0 -15 -8 -18 -17z"/>
<path d="M1285 168 c-26 -113 -32 -158 -20 -158 6 0 17 17 24 38 17 54 63 117
86 117 12 0 19 -6 17 -14 -2 -8 -6 -42 -9 -76 -7 -73 7 -90 41 -55 l21 22 -22
-11 c-21 -11 -23 -9 -23 13 0 13 5 47 12 75 8 38 9 54 1 62 -19 19 -61 1 -88
-38 -27 -40 -30 -37 -16 15 8 25 7 32 -5 32 -7 0 -16 -10 -19 -22z"/>
<path d="M1668 179 c-29 -17 -23 -64 12 -89 17 -12 30 -30 30 -41 0 -28 -39
-41 -68 -22 -28 17 -40 10 -22 -12 20 -24 66 -19 89 11 28 36 27 42 -16 86
-30 31 -34 40 -23 53 16 19 34 19 53 0 17 -16 28 -10 20 11 -6 16 -50 18 -75
3z"/>
</g>
</svg>
